<svg width="1440" height="1483" viewBox="0 0 1440 1483" fill="none" xmlns="http://www.w3.org/2000/svg">
<g clip-path="url(#clip0_38_7)">
<rect width="1440" height="2634" transform="translate(0 -658)" fill="white"/>
<g filter="url(#filter0_f_38_7)">
<ellipse cx="577" cy="552" rx="577" ry="552" transform="matrix(-1 0 0 1 650 -659)" fill="url(#paint0_linear_38_7)" fill-opacity="0.43"/>
</g>
<g filter="url(#filter1_f_38_7)">
<ellipse cx="501" cy="531.5" rx="501" ry="531.5" transform="matrix(-1 0 0 1 1805 -638.5)" fill="url(#paint1_linear_38_7)" fill-opacity="0.43"/>
</g>
<path d="M1266.85 246.778L1272.73 248.352C1302.54 256.227 1309.45 282.063 1305.03 314.043C1305.15 319.204 1306.02 324.197 1307.63 329.021C1329.39 379.181 1317.92 382.227 1330.73 424.605C1330.91 425.122 1330.9 425.466 1330.9 425.982C1335.61 433.573 1333.01 500.656 1328.66 542.27C1328.84 543.131 1328.83 543.819 1328.64 544.678C1326.81 559.809 1326.46 558.087 1328.43 563.257C1330.4 568.427 1338.03 595.299 1338.2 596.848C1338.54 599.258 1338.52 601.667 1338.12 603.901C1336.56 611.464 1334.98 620.747 1331.65 621.592C1329.75 626.229 1326.76 629.312 1324.91 630.164C1320.42 635.477 1319.09 638.74 1317.25 638.044C1315.42 637.347 1314.7 635.28 1315.46 633.563C1315.46 633.563 1315.46 633.563 1315.46 633.391C1316.22 631.158 1315.28 632.874 1313.78 635.448C1311.9 638.536 1310.2 641.797 1308.9 642.479C1303.58 639.531 1307.16 633.182 1310.35 628.379C1312.23 625.635 1309.42 629.063 1306.04 634.209C1303.03 638.84 1300.04 642.956 1299.3 642.437C1292.34 637.932 1301.35 624.382 1302.85 622.84C1302.71 618.366 1302.76 614.066 1302.99 609.594C1301.55 606.663 1300.5 601.669 1299.85 594.268C1299.07 597.19 1297.94 599.937 1296.8 602.685C1295.12 604.398 1299.56 619.557 1287.01 619.501C1287.08 613.652 1287.17 605.566 1287.23 600.061C1287.28 595.589 1288.89 584.069 1288.94 579.597C1288.99 575.124 1299.82 563.474 1300.38 562.96C1300.83 555.908 1300.54 548.682 1299.88 541.625C1299.89 541.453 1299.89 541.109 1300.08 540.938C1297.87 524.068 1292.34 506.84 1288.58 496.157C1284.83 485.474 1278.05 464.627 1279.51 449.838C1279.33 449.321 1279.15 448.632 1279.34 448.117C1279.21 443.472 1279.82 438.657 1281.35 434.191C1267.02 411.418 1259.19 385.578 1258.94 359.083C1254.3 377.642 1240.74 401.667 1240.58 415.945C1240.39 433.148 1245.77 446.935 1245.64 458.289C1245.57 465.17 1243.43 474.795 1239.23 487.507C1246.45 501.302 1276.15 567.841 1280.51 623.601C1284.7 677.467 1285.4 713.598 1279.08 750.386C1292.55 767.306 1297.68 819.972 1287.81 876.7C1284.07 897.844 1288.35 943.797 1292.33 967.212C1296.31 990.627 1268.44 990.675 1258.74 983.75C1253.25 979.768 1244.53 967.859 1248.49 959.791C1248.32 942.414 1242.64 889.401 1228.31 851.317C1220.78 830.983 1221.52 797.955 1222.65 779.896C1222.48 778.863 1222.12 777.83 1221.95 776.797C1219.84 766.981 1221.17 763.89 1221.42 758.214C1215.5 743.048 1199.92 716.829 1194.28 693.751C1189.52 674.117 1185.15 651.905 1180.82 627.112L1176.21 626.92C1174.47 633.449 1173.1 640.153 1172.1 647.03C1170.64 662.679 1172.56 688.837 1146.48 759.772C1146.37 769.75 1149.67 770.969 1148.25 783.005C1147.84 786.616 1147.24 790.054 1146.28 793.663C1151.57 815.191 1156.7 851.342 1139.54 883.952C1128.23 905.75 1121.61 936.343 1125.3 953.048C1130.01 960.81 1127.59 978.519 1122.56 982.97C1113.43 990.671 1078.61 985.526 1083.13 961.289C1087.65 937.052 1088.06 900.41 1081 871.648C1074.64 846.158 1077.2 815.719 1083.29 783.059C1083.3 781.855 1083.31 780.651 1083.33 779.274C1083.4 773.253 1083.64 767.749 1084.07 762.59C1081.08 749.846 1077.14 739.162 1073.35 698.716C1071.37 678.063 1074.14 660.872 1073.81 641.43C1075.99 578.302 1088.84 502.835 1095.1 487.896L1095.47 487.897C1094.62 480.84 1094.15 473.612 1094.04 466.558C1094.14 457.785 1100.08 438.887 1102.12 421.348C1103.74 408.281 1095.78 394.31 1090.59 379.492C1088.54 398.063 1078.55 416.942 1065.64 432.196C1079.21 489.717 1055.12 514.899 1047.96 560.457C1048.87 561.321 1049.6 562.185 1050.33 563.048C1058.16 572.717 1059.31 585.453 1054.15 600.913C1056.67 606.086 1058.49 609.019 1059.58 610.056C1062.69 612.478 1065.29 610.941 1066.13 618.687C1063.37 617.814 1060.25 616.768 1057.49 615.724C1063.53 619.707 1065.33 623.672 1063.26 627.276L1055.19 622.939C1057.2 624.668 1058.47 626.91 1058.81 629.32C1058.6 631.728 1057.84 633.961 1056.52 636.02L1049.07 625.836L1039.3 608.589L1044.85 623.925C1048.67 628.759 1050.65 633.069 1050.98 636.511C1051.31 639.953 1050 642.012 1046.67 642.341C1040.12 634.054 1036.12 628.875 1034.66 627.148C1030.86 620.766 1027.61 614.214 1024.92 607.32C1023.67 603.358 1023.41 593.723 1024.14 578.071C1023.99 574.973 1024.03 571.705 1024.43 568.61C1027.69 541.442 1012.47 500.43 1017.37 457.958C1018.2 449.704 1020.33 441.456 1023.55 433.728C1024.37 426.679 1028.9 417.409 1028.6 411.386C1025.98 348.925 1041.72 360.694 1041.13 330.929C1040.54 301.163 1038.74 281.371 1051.08 266.975C1060.62 255.663 1082.09 249.222 1095.21 248.42C1097.81 246.539 1100.78 245.004 1103.75 243.641C1112.46 239.895 1121.54 236.495 1130.62 233.439C1141.66 220.069 1139.67 216.791 1139.93 193.223C1140.2 169.311 1204.67 180.266 1204.55 190.415C1204.45 199.877 1199.22 221.358 1212.03 231.394" fill="url(#paint2_linear_38_7)"/>
<path d="M1313.24 606.978L1315.05 621.773" stroke="#F29353" stroke-width="1.14" stroke-linecap="round"/>
<path d="M1322.51 607.035L1323.02 624.747L1320.46 628.691" stroke="#F29353" stroke-width="1.14" stroke-linecap="round"/>
<path d="M1333.32 601.944L1332.76 619.137L1329.22 626.688" stroke="#F29353" stroke-width="1.14" stroke-linecap="round"/>
<path d="M1302.96 599.177L1301.03 591.252L1298.92 597.783" stroke="#F29353" stroke-width="1.14" stroke-linecap="round"/>
<path d="M1303.32 557.576L1301.22 564.276" stroke="#F29353" stroke-width="1.14" stroke-linecap="round"/>
<path d="M1262.28 336.604C1261.48 341.934 1263.41 348.995 1268.45 357.445" stroke="#EE8B48" stroke-width="1.14" stroke-linecap="round"/>
<path d="M1292.1 417.397C1288.35 422.201 1285.52 427.524 1283.79 433.197" stroke="#F29353" stroke-width="1.14" stroke-linecap="round"/>
<path d="M1097.38 770.406C1094.7 780.539 1095.9 788.626 1100.81 794.841C1105.71 801.055 1108.18 811.9 1107.84 827.375" stroke="#F08944" stroke-width="1.14" stroke-linecap="round"/>
<path d="M1135.45 769.623C1138.26 781.5 1137.44 790.093 1132.81 795.057" stroke="#F08944" stroke-width="1.14" stroke-linecap="round"/>
<path d="M1097.95 353.923C1088.54 348.535 1084.43 334.549 1081.46 334.363C1078.49 334.178 1074.3 342.609 1068.3 348.101" stroke="#EE8B48" stroke-width="1.14" stroke-linecap="round"/>
<path d="M1084.33 343.164C1084.41 352.451 1082.29 361.556 1078.35 369.964" stroke="#EE8B48" stroke-width="1.14" stroke-linecap="round"/>
<path d="M1086.46 340.783C1093.55 355.215 1106.34 359.436 1128.48 359.535C1150.62 359.634 1167.39 357.453 1168.87 341.151" stroke="#EE8B48" stroke-width="1.14" stroke-linecap="round"/>
<path d="M1245.1 354.948C1254.64 349.644 1259.07 335.696 1262.04 335.537C1265.01 335.378 1269.01 343.845 1274.89 349.39" stroke="#EE8B48" stroke-width="1.14" stroke-linecap="round"/>
<path d="M1256.93 341.728C1249.52 356.094 1236.63 360.201 1214.5 360.102C1192.36 360.003 1175.64 357.673 1174.52 341.359" stroke="#EE8B48" stroke-width="1.14" stroke-linecap="round"/>
<path d="M1206.1 228.29C1206.78 233.109 1208.01 237.758 1209.8 242.41" stroke="#F89451" stroke-width="1.14" stroke-linecap="round"/>
<path d="M1133.98 229.705C1133.75 233.659 1132.98 237.611 1131.84 241.389" stroke="#F89451" stroke-width="1.14" stroke-linecap="round"/>
<path d="M1230.21 767.324C1229.73 777.643 1232.04 785.394 1237.33 790.407C1242.62 795.419 1246.38 805.413 1248.98 820.563" stroke="#F08944" stroke-width="1.14" stroke-linecap="round"/>
<path d="M1268 769.28C1269.51 781.497 1267.77 789.744 1262.59 794.364" stroke="#F08944" stroke-width="1.14" stroke-linecap="round"/>
<path fill-rule="evenodd" clip-rule="evenodd" d="M1061.42 1034.18C1063.53 1043.32 1071.79 1049.55 1084.34 1052.19C1096.9 1054.82 1119.5 1054.05 1126.59 1049.77C1133.68 1045.5 1147.57 1030.22 1128.43 1005.85C1133.98 990.891 1142.64 979.729 1128.23 962.1C1121.59 974.993 1101.3 968.537 1086.37 962.964C1082.87 961.744 1075.12 989.446 1072.55 1002.7C1063.81 1020.41 1058.45 1020.38 1061.42 1034.18Z" fill="#C6C6C6"/>
<path fill-rule="evenodd" clip-rule="evenodd" d="M1094.52 959.569C1100.3 956.32 1107.7 956.694 1113.02 960.678C1114.49 961.717 1116.85 965.861 1120.56 964.843C1126.32 963.316 1125.83 957.801 1127.9 955.915C1129.96 954.028 1135.52 968.349 1130.17 981.763C1124.82 995.178 1135.49 1015.72 1135.49 1015.72C1135.49 1015.72 1140.54 1041.06 1121.28 1041.85C1115.72 1042.17 1115.95 1038.72 1100.01 1039.52C1090.38 1040 1092.35 1045.35 1077.96 1040.46C1063.58 1035.58 1060.02 1024.37 1062.87 1018.7C1065.9 1012.68 1071.59 1002.37 1074.86 991.875C1075.45 974.651 1078.92 962.951 1084.93 956.774C1085.07 960.22 1087.64 962.297 1088.93 962.303C1093 962.491 1093.03 960.597 1094.52 959.569Z" fill="black"/>
<path fill-rule="evenodd" clip-rule="evenodd" d="M1087.23 976.786L1110.28 984.632L1091.63 995.065L1111.35 1003.07L1089.11 1004.36L1110.72 993.937L1091.19 985.761L1113.18 975.169L1087.23 976.786Z" stroke="white" stroke-width="1.07" stroke-linecap="round" stroke-linejoin="round"/>
<path fill-rule="evenodd" clip-rule="evenodd" d="M1317.56 1035.66C1315.6 1044.96 1307.37 1051.3 1294.93 1054.17C1282.49 1057.05 1259.72 1056.96 1252.55 1052.8C1245.37 1048.8 1231.3 1033.76 1250.31 1009.03C1244.57 994.195 1235.82 983.307 1249.93 965.277C1256.8 978.052 1276.89 971.071 1291.77 965.102C1295.31 963.739 1303.3 991.333 1306.1 1004.44C1315.14 1022.04 1320.51 1021.89 1317.56 1035.66Z" fill="#C6C6C6"/>
<path fill-rule="evenodd" clip-rule="evenodd" d="M1283.63 961.815C1277.74 958.69 1270.33 959.349 1265.09 963.463C1263.59 964.662 1261.32 968.615 1257.63 967.739C1251.91 966.338 1254.02 960.489 1252 958.758C1249.99 957.028 1242.77 971.641 1248.16 984.927C1253.73 998.214 1243.29 1019.02 1243.29 1019.02C1243.29 1019.02 1238.53 1044.49 1257.97 1044.74C1263.53 1044.77 1263.38 1041.49 1279.12 1041.9C1288.75 1042.11 1286.83 1047.62 1301.33 1042.33C1315.84 1037.05 1318.95 1025.7 1316.05 1020.17C1312.98 1014.13 1307.18 1003.94 1303.6 993.593C1302.71 976.363 1299.15 964.634 1293.11 958.753C1292.88 962.197 1290.45 964.427 1289.34 964.422C1285.26 964.75 1285.1 962.855 1283.63 961.815Z" fill="black"/>
<path fill-rule="evenodd" clip-rule="evenodd" d="M1290.95 978.912L1268.07 987.261L1286.65 997.329L1267.1 1005.86L1289.5 1006.64L1267.58 996.563L1287.14 988.028L1265.03 977.946L1290.95 978.912Z" stroke="white" stroke-width="1.07" stroke-linecap="round" stroke-linejoin="round"/>
<g opacity="0.42" filter="url(#filter2_f_38_7)">
<path fill-rule="evenodd" clip-rule="evenodd" d="M1141.27 199.872C1141.71 210.211 1143.82 236.75 1155.44 242.831C1167.06 248.913 1180.79 248.801 1187.91 242.975C1195.03 237.15 1202.12 217.197 1202.53 197.388C1204.53 183.959 1136.59 186.759 1141.27 199.872Z" fill="#915D2E" fill-opacity="0.7"/>
</g>
<path fill-rule="evenodd" clip-rule="evenodd" d="M1134.65 203.404C1135.23 214.951 1149.81 230.34 1155.85 235.015C1161.89 239.689 1177.76 241.471 1184.87 235.122C1191.99 228.772 1198.37 221.386 1199.91 217.084C1201.45 212.782 1206.2 203.323 1206.98 200.568C1211.67 209.029 1230.12 170.844 1214.18 173.542C1214.32 163.376 1215.77 138.569 1201.13 127.487C1186.49 116.405 1167.29 114.439 1147.02 123.152C1126.75 131.865 1122.8 150.461 1127.08 175.289C1130.77 176.164 1113.26 172.481 1119.87 189.392C1124.37 198.196 1124.26 206.122 1134.65 203.404Z" fill="#FFD4AB"/>
<path d="M1168.58 234.061L1172.86 234.09" stroke="#EA833E" stroke-width="1.14" stroke-linecap="round"/>
<path d="M1216.66 179.694C1210.12 183.971 1206.74 187.229 1206.71 189.64" stroke="#EA833E" stroke-width="1.14" stroke-linecap="round"/>
<path d="M1211.77 185.516L1211.73 189.646L1206.66 196.162" stroke="#EA833E" stroke-width="1.14" stroke-linecap="round"/>
<path d="M1122.08 181.846C1125.78 182.896 1128.72 185.666 1129.8 189.116" stroke="#EA833E" stroke-width="1.14" stroke-linecap="round"/>
<path d="M1125.8 184.964L1126.65 191.679L1131.22 195.658" stroke="#EA833E" stroke-width="1.14" stroke-linecap="round"/>
<path opacity="0.75" fill-rule="evenodd" clip-rule="evenodd" d="M1238.56 488.2C1212.89 503.851 1105.45 501.389 1093.38 488.284C1085.69 459.637 1098.21 442.369 1099.48 418.731C1100.08 407.577 1092.13 397.568 1089.72 380.936C1087.52 371.924 1086.45 364.29 1086.52 358.032C1098.64 346.142 1104.83 327.688 1105.09 302.669C1105.46 266.498 1098.14 257.638 1093.8 248.13C1092.78 246.399 1098.07 243.538 1103.91 241.39C1110.65 238.912 1117.82 235.341 1118.77 236.746C1118.73 239.998 1132.3 286.906 1169.94 287.089C1207.57 287.273 1219.38 279.323 1229.92 236.962C1229.5 235.743 1234.48 236.789 1242.8 238.899C1251.13 241.009 1257.48 243.012 1255.81 243.977C1253.21 244.963 1252.16 252.019 1245.51 296.751C1238.87 341.483 1252.28 341.811 1259.74 350.021C1259.88 356.747 1258.75 364.549 1256.34 373.425C1244.08 399.032 1239.75 419.559 1243.35 435.004C1248.74 458.171 1249.38 478.694 1238.56 488.2Z" fill="#FFFAF9"/>
<path opacity="0.85" fill-rule="evenodd" clip-rule="evenodd" d="M1173.87 652.335L1175.73 635.976L1180.41 635.932L1182.08 652.375C1219.32 652.681 1245.56 650.804 1260.79 646.744C1272.82 643.536 1280.47 634.925 1283.74 620.913C1275.9 579.214 1268.52 549.136 1261.61 530.678C1254.87 512.651 1244.17 487.462 1239.52 487.44C1170.37 504.988 1106.29 494.03 1094.41 487.766C1090.62 487.506 1088.88 499.558 1086.27 510.035C1082.21 526.292 1073.24 597.073 1071.74 625.556C1071.53 646.3 1105.57 655.226 1173.87 652.335Z" fill="black"/>
<g filter="url(#filter3_d_38_7)">
<path d="M1298.83 393.551C1336.39 399.147 1360 407.246 1360 416.255C1360 433.142 1277.06 446.831 1174.75 446.831C1072.43 446.831 989.492 433.142 989.492 416.255C989.492 407.6 1011.28 399.785 1046.29 394.223" stroke="#E95D5C" stroke-width="2" stroke-linecap="round"/>
</g>
<g filter="url(#filter4_d_38_7)">
<path d="M1244.28 547.684C1266.18 553.28 1279.94 561.379 1279.94 570.389C1279.94 587.276 1231.59 600.965 1171.95 600.965C1112.31 600.965 1063.97 587.276 1063.97 570.389C1063.97 561.734 1076.67 553.919 1097.08 548.357" stroke="#E95D5C" stroke-width="2" stroke-linecap="round"/>
</g>
<g filter="url(#filter5_d_38_7)">
<path d="M1269.52 709.43C1297.64 715.025 1315.32 723.125 1315.32 732.134C1315.32 749.021 1253.21 762.71 1176.61 762.71C1100 762.71 1037.9 749.021 1037.9 732.134C1037.9 723.479 1054.21 715.664 1080.43 710.102" stroke="#E95D5C" stroke-width="2" stroke-linecap="round"/>
</g>
<path d="M1211.05 173.77C1211.61 169.093 1212.91 165.882 1210.12 155.722C1206.67 147.181 1199.05 141.259 1199.68 130.946C1193.75 126.658 1180.95 134.821 1168.14 136.482C1155.33 138.143 1130.06 131.812 1131.92 150.72C1134.72 164.824 1130.68 165.775 1131.92 177.208L1127.27 175.489C1123.55 171.192 1116.24 149.72 1120.85 126.62C1125.47 103.52 1179.08 80.8052 1203.98 121.179C1228.57 114.483 1216.28 168.591 1215.71 173.77H1211.05Z" fill="black"/>
</g>
<defs>
<filter id="filter0_f_38_7" x="-1160.84" y="-1315.84" width="2467.68" height="2417.68" filterUnits="userSpaceOnUse" color-interpolation-filters="sRGB">
<feFlood flood-opacity="0" result="BackgroundImageFix"/>
<feBlend mode="normal" in="SourceGraphic" in2="BackgroundImageFix" result="shape"/>
<feGaussianBlur stdDeviation="328.42" result="effect1_foregroundBlur_38_7"/>
</filter>
<filter id="filter1_f_38_7" x="146.16" y="-1295.34" width="2315.68" height="2376.68" filterUnits="userSpaceOnUse" color-interpolation-filters="sRGB">
<feFlood flood-opacity="0" result="BackgroundImageFix"/>
<feBlend mode="normal" in="SourceGraphic" in2="BackgroundImageFix" result="shape"/>
<feGaussianBlur stdDeviation="328.42" result="effect1_foregroundBlur_38_7"/>
</filter>
<filter id="filter2_f_38_7" x="1137.04" y="184.579" width="69.5308" height="66.7897" filterUnits="userSpaceOnUse" color-interpolation-filters="sRGB">
<feFlood flood-opacity="0" result="BackgroundImageFix"/>
<feBlend mode="normal" in="SourceGraphic" in2="BackgroundImageFix" result="shape"/>
<feGaussianBlur stdDeviation="2" result="effect1_foregroundBlur_38_7"/>
</filter>
<filter id="filter3_d_38_7" x="984.492" y="392.551" width="380.508" height="63.2809" filterUnits="userSpaceOnUse" color-interpolation-filters="sRGB">
<feFlood flood-opacity="0" result="BackgroundImageFix"/>
<feColorMatrix in="SourceAlpha" type="matrix" values="0 0 0 0 0 0 0 0 0 0 0 0 0 0 0 0 0 0 127 0" result="hardAlpha"/>
<feOffset dy="4"/>
<feGaussianBlur stdDeviation="2"/>
<feComposite in2="hardAlpha" operator="out"/>
<feColorMatrix type="matrix" values="0 0 0 0 0.913725 0 0 0 0 0.364706 0 0 0 0 0.360784 0 0 0 0.37 0"/>
<feBlend mode="normal" in2="BackgroundImageFix" result="effect1_dropShadow_38_7"/>
<feBlend mode="normal" in="SourceGraphic" in2="effect1_dropShadow_38_7" result="shape"/>
</filter>
<filter id="filter4_d_38_7" x="1058.97" y="546.684" width="225.975" height="63.281" filterUnits="userSpaceOnUse" color-interpolation-filters="sRGB">
<feFlood flood-opacity="0" result="BackgroundImageFix"/>
<feColorMatrix in="SourceAlpha" type="matrix" values="0 0 0 0 0 0 0 0 0 0 0 0 0 0 0 0 0 0 127 0" result="hardAlpha"/>
<feOffset dy="4"/>
<feGaussianBlur stdDeviation="2"/>
<feComposite in2="hardAlpha" operator="out"/>
<feColorMatrix type="matrix" values="0 0 0 0 0.913725 0 0 0 0 0.364706 0 0 0 0 0.360784 0 0 0 0.37 0"/>
<feBlend mode="normal" in2="BackgroundImageFix" result="effect1_dropShadow_38_7"/>
<feBlend mode="normal" in="SourceGraphic" in2="effect1_dropShadow_38_7" result="shape"/>
</filter>
<filter id="filter5_d_38_7" x="1032.9" y="708.429" width="287.416" height="63.281" filterUnits="userSpaceOnUse" color-interpolation-filters="sRGB">
<feFlood flood-opacity="0" result="BackgroundImageFix"/>
<feColorMatrix in="SourceAlpha" type="matrix" values="0 0 0 0 0 0 0 0 0 0 0 0 0 0 0 0 0 0 127 0" result="hardAlpha"/>
<feOffset dy="4"/>
<feGaussianBlur stdDeviation="2"/>
<feComposite in2="hardAlpha" operator="out"/>
<feColorMatrix type="matrix" values="0 0 0 0 0.913725 0 0 0 0 0.364706 0 0 0 0 0.360784 0 0 0 0.37 0"/>
<feBlend mode="normal" in2="BackgroundImageFix" result="effect1_dropShadow_38_7"/>
<feBlend mode="normal" in="SourceGraphic" in2="effect1_dropShadow_38_7" result="shape"/>
</filter>
<linearGradient id="paint0_linear_38_7" x1="577" y1="0" x2="577" y2="1104" gradientUnits="userSpaceOnUse">
<stop stop-color="#6979F8" stop-opacity="0.97"/>
<stop offset="1" stop-color="#6979F8" stop-opacity="0.6"/>
</linearGradient>
<linearGradient id="paint1_linear_38_7" x1="501" y1="0" x2="501" y2="1063" gradientUnits="userSpaceOnUse">
<stop stop-color="#6979F8" stop-opacity="0.97"/>
<stop offset="1" stop-color="#6979F8" stop-opacity="0.6"/>
</linearGradient>
<linearGradient id="paint2_linear_38_7" x1="1179.99" y1="56.8639" x2="1216.93" y2="1203.5" gradientUnits="userSpaceOnUse">
<stop stop-color="#FFD6A7"/>
<stop offset="0.49" stop-color="#FFCFB0"/>
<stop offset="1" stop-color="#FFB783"/>
</linearGradient>
<clipPath id="clip0_38_7">
<rect width="1440" height="2634" fill="white" transform="translate(0 -658)"/>
</clipPath>
</defs>
</svg>
